<?xml version="1.0" standalone="no"?>
<!DOCTYPE svg PUBLIC "-//W3C//DTD SVG 20010904//EN"
 "http://www.w3.org/TR/2001/REC-SVG-20010904/DTD/svg10.dtd">
<svg version="1.0" xmlns="http://www.w3.org/2000/svg"
 width="256.000000pt" height="246.000000pt" viewBox="0 0 256.000000 246.000000"
 preserveAspectRatio="xMidYMid meet">

<g transform="translate(0.000000,246.000000) scale(0.100000,-0.100000)"
fill="#000000" stroke="none">
<path d="M0 1230 l0 -1230 1280 0 1280 0 0 1230 0 1230 -1280 0 -1280 0 0
-1230z m1217 835 c0 -8 -4 -12 -9 -9 -5 3 -6 10 -3 15 9 13 12 11 12 -6z m128
6 c3 -5 2 -12 -3 -15 -5 -3 -9 1 -9 9 0 17 3 19 12 6z m-134 -38 c13 -16 12
-17 -4 -4 -15 12 -20 11 -37 -4 -11 -10 -17 -22 -13 -28 4 -6 1 -7 -6 -2 -9 5
-7 13 10 31 27 29 32 29 50 7z m178 -7 c17 -18 19 -26 10 -31 -7 -5 -10 -4 -6
2 4 6 -2 18 -13 28 -17 15 -22 16 -37 4 -16 -13 -17 -12 -4 4 18 22 23 22 50
-7z m-194 -56 c10 -11 16 -20 13 -20 -3 0 -13 9 -23 20 -10 11 -16 20 -13 20
3 0 13 -9 23 -20z m-68 -6 c-3 -3 -12 -4 -19 -1 -8 3 -5 6 6 6 11 1 17 -2 13
-5z m320 0 c-3 -3 -12 -4 -19 -1 -8 3 -5 6 6 6 11 1 17 -2 13 -5z m-276 -21
c13 -16 12 -17 -3 -4 -10 7 -18 15 -18 17 0 8 8 3 21 -13z m229 13 c0 -2 -8
-10 -17 -17 -16 -13 -17 -12 -4 4 13 16 21 21 21 13z m-83 -98 c-3 -7 -5 -2
-5 12 0 14 2 19 5 13 2 -7 2 -19 0 -25z m-80 0 c-3 -8 -6 -5 -6 6 -1 11 2 17
5 13 3 -3 4 -12 1 -19z m-20 -10 c-3 -8 -6 -5 -6 6 -1 11 2 17 5 13 3 -3 4
-12 1 -19z m156 -8 c-3 -12 -8 -19 -11 -16 -5 6 5 36 12 36 2 0 2 -9 -1 -20z
m-186 -12 c-3 -8 -6 -5 -6 6 -1 11 2 17 5 13 3 -3 4 -12 1 -19z m-94 4 c3 7 4
3 4 -9 -1 -13 -2 -23 -3 -23 0 0 -9 10 -20 22 -13 16 -14 19 -2 10 13 -10 17
-10 21 0z m383 -1 c20 17 17 5 -4 -14 -17 -15 -18 -15 -19 6 0 12 1 16 4 9 4
-10 8 -10 19 -1z m-289 -36 c0 -8 -4 -15 -9 -15 -10 0 -11 14 -1 23 9 10 10 9
10 -8z m56 8 c-7 -2 -19 -2 -25 0 -7 3 -2 5 12 5 14 0 19 -2 13 -5z m84 1 c-3
-3 -12 -4 -19 -1 -8 3 -5 6 6 6 11 1 17 -2 13 -5z m53 -15 c0 -5 -4 -9 -8 -9
-5 0 -9 7 -9 15 0 8 4 12 9 9 4 -3 8 -9 8 -15z m-630 7 c0 -7 -60 -12 -70 -6
-6 4 7 7 30 8 22 1 40 0 40 -2z m83 -3 c-7 -2 -21 -2 -30 0 -10 3 -4 5 12 5
17 0 24 -2 18 -5z m920 0 c-7 -2 -21 -2 -30 0 -10 3 -4 5 12 5 17 0 24 -2 18
-5z m117 -3 c-10 -6 -70 -1 -70 6 0 2 18 3 40 2 23 -1 36 -4 30 -8z m-707 -54
c11 -3 18 -8 15 -11 -13 -13 -48 16 -47 38 2 22 2 22 6 1 2 -12 14 -24 26 -28z
m257 24 c0 -20 -37 -47 -48 -35 -3 3 4 8 16 12 13 3 22 13 22 24 0 11 2 19 5
19 3 0 5 -9 5 -20z m-503 -12 c-3 -8 -6 -5 -6 6 -1 11 2 17 5 13 3 -3 4 -12 1
-19z m720 0 c-3 -8 -6 -5 -6 6 -1 11 2 17 5 13 3 -3 4 -12 1 -19z m-719 -38
c-7 -10 -14 -17 -17 -15 -4 4 18 35 25 35 2 0 -1 -9 -8 -20z m321 -8 c0 -14
-2 -13 -9 3 -5 12 -9 14 -9 6 -1 -8 -4 -12 -7 -8 -9 9 6 28 17 22 5 -4 9 -14
8 -23z m101 5 c0 -7 -4 -6 -10 3 -8 13 -10 12 -10 -4 0 -11 -3 -17 -6 -13 -4
3 -4 13 0 22 6 18 26 11 26 -8z m309 -11 c-3 -3 -11 5 -18 17 -13 21 -12 21 5
5 10 -10 16 -20 13 -22z m196 6 c-3 -3 -11 0 -18 7 -9 10 -8 11 6 5 10 -3 15
-9 12 -12z m-984 -9 c13 -16 12 -17 -3 -4 -10 7 -18 15 -18 17 0 8 8 3 21 -13z
m849 13 c0 -2 -8 -10 -17 -17 -16 -13 -17 -12 -4 4 13 16 21 21 21 13z m-1000
-31 c0 -12 -19 -12 -23 0 -4 9 -1 12 9 8 7 -3 14 -7 14 -8z m295 6 c-3 -5 5
-17 17 -25 12 -9 18 -16 14 -16 -12 0 -46 31 -46 42 0 4 5 8 11 8 5 0 8 -4 4
-9z m555 2 c0 -11 -32 -43 -44 -43 -6 0 0 7 12 16 12 8 20 20 17 25 -4 5 -1 9
4 9 6 0 11 -3 11 -7z m304 -8 c-4 -8 -11 -12 -16 -9 -6 4 -5 10 3 15 19 12 19
11 13 -6z m-1030 -4 c4 -5 -3 -7 -14 -4 -23 6 -26 13 -6 13 8 0 17 -4 20 -9z
m146 -13 c0 -18 -2 -20 -9 -8 -6 8 -7 18 -5 22 9 14 14 9 14 -14z m603 -3 c-7
-21 -13 -19 -13 6 0 11 4 18 10 14 5 -3 7 -12 3 -20z m187 21 c0 -2 -13 -6
-29 -8 -17 -2 -28 -1 -25 4 5 8 54 12 54 4z m-570 -9 c0 -2 -12 -14 -27 -28
l-28 -24 24 28 c23 25 31 32 31 24z m180 -22 c13 -14 21 -25 18 -25 -2 0 -15
11 -28 25 -13 14 -21 25 -18 25 2 0 15 -11 28 -25z m-599 -2 c13 -16 12 -17
-3 -4 -17 13 -22 21 -14 21 2 0 10 -8 17 -17z m439 14 c0 -2 -10 -12 -22 -23
l-23 -19 19 23 c18 21 26 27 26 19z m135 -17 c10 -11 16 -20 13 -20 -3 0 -13
9 -23 20 -10 11 -16 20 -13 20 3 0 13 -9 23 -20z m435 16 c0 -2 -8 -10 -17
-17 -16 -13 -17 -12 -4 4 13 16 21 21 21 13z m-655 -16 c-3 -5 -12 -10 -18
-10 -7 0 -6 4 3 10 19 12 23 12 15 0z m300 -8 c-3 -3 -11 0 -18 7 -9 10 -8 11
6 5 10 -3 15 -9 12 -12z m-659 -24 l29 -33 -30 26 c-16 15 -37 24 -45 22 -13
-4 -13 -3 0 6 8 6 15 11 16 11 0 0 13 -15 30 -32z m219 -13 c-30 -39 -44 -45
-93 -44 l-37 2 42 6 c47 8 71 25 84 59 5 13 13 20 19 17 6 -4 0 -20 -15 -40z
m245 35 c0 -5 -5 -10 -11 -10 -5 0 -7 5 -4 10 3 6 8 10 11 10 2 0 4 -4 4 -10z
m85 0 c3 -5 1 -10 -4 -10 -6 0 -11 5 -11 10 0 6 2 10 4 10 3 0 8 -4 11 -10z
m235 -8 c0 -28 36 -55 83 -63 l42 -6 -44 -2 c-38 -1 -47 4 -77 36 -31 34 -36
53 -13 53 5 0 9 -8 9 -18z m270 1 c0 -3 -6 -3 -12 0 -7 2 -26 -7 -43 -22 l-30
-26 29 32 c16 17 34 29 42 26 8 -3 14 -7 14 -10z m-875 -23 c-10 -11 -22 -20
-28 -20 -5 0 1 9 14 20 31 25 37 25 14 0z m194 -8 c0 -11 -2 -12 -6 -4 -2 6
-8 10 -12 8 -3 -2 -22 0 -41 4 l-35 9 38 -2 c20 -2 37 1 37 6 0 4 5 5 10 2 6
-3 10 -14 9 -23z m309 15 l37 2 -35 -9 c-19 -4 -38 -6 -42 -4 -5 3 -8 0 -8 -7
0 -7 -3 -10 -6 -6 -4 3 -3 14 1 24 4 10 9 13 11 8 3 -6 21 -10 42 -8z m166
-26 c-3 -3 -15 6 -27 18 l-22 24 27 -19 c14 -10 24 -21 22 -23z m-397 -2 c-5
-17 1 -19 48 -19 47 0 53 2 48 19 -3 10 1 22 8 26 8 5 10 4 5 -4 -4 -7 -5 -19
-2 -28 6 -14 9 -13 30 6 17 16 23 18 23 7 0 -8 -4 -13 -8 -10 -4 2 -11 -1 -15
-7 -5 -8 1 -10 20 -7 14 3 26 1 26 -3 0 -5 -63 -9 -141 -9 -77 0 -138 4 -135
9 3 4 18 6 32 3 19 -3 25 -1 20 7 -4 6 -11 9 -15 7 -4 -3 -8 2 -8 10 0 11 6 9
23 -7 23 -22 41 -12 30 17 -4 9 -2 12 5 8 6 -3 9 -15 6 -25z m-134 4 c-7 -2
-19 -2 -25 0 -7 3 -2 5 12 5 14 0 19 -2 13 -5z m197 1 c0 -8 -19 -13 -24 -6
-3 5 1 9 9 9 8 0 15 -2 15 -3z m193 -1 c-7 -2 -19 -2 -25 0 -7 3 -2 5 12 5 14
0 19 -2 13 -5z m-624 -46 c21 -23 21 -25 4 -38 -15 -11 -16 -11 -6 1 10 11 9
18 -9 37 -12 13 -19 23 -16 23 2 0 14 -11 27 -23z m142 16 c-9 -4 -10 -8 -2
-12 6 -4 -14 -11 -45 -17 -46 -8 -57 -8 -66 5 -10 13 -9 14 1 5 14 -13 77 -1
96 17 5 5 14 9 20 8 5 0 4 -3 -4 -6z m79 -3 c0 -5 -12 -10 -27 -9 l-28 1 25 8
c14 4 26 8 28 9 1 1 2 -3 2 -9z m440 -6 c0 -2 -11 -4 -25 -4 -14 0 -25 4 -25
9 0 4 11 6 25 3 14 -2 25 -6 25 -8z m46 7 c18 -18 81 -30 95 -17 10 9 11 8 1
-5 -9 -13 -20 -13 -67 -5 -31 6 -51 12 -45 14 9 3 8 7 -1 13 -8 5 -9 9 -3 9 5
0 14 -4 20 -9z m136 -14 c-18 -19 -19 -26 -9 -37 10 -12 9 -12 -6 -1 -17 13
-17 15 4 38 13 12 25 23 27 23 3 0 -4 -10 -16 -23z m-564 -44 c-10 -2 -28 -2
-40 0 -13 2 -5 4 17 4 22 1 32 -1 23 -4z m75 0 c-7 -2 -19 -2 -25 0 -7 3 -2 5
12 5 14 0 19 -2 13 -5z m150 0 c-7 -2 -19 -2 -25 0 -7 3 -2 5 12 5 14 0 19 -2
13 -5z m95 0 c-10 -2 -28 -2 -40 0 -13 2 -5 4 17 4 22 1 32 -1 23 -4z m-397
-10 c32 -6 33 -7 9 -13 -14 -3 -26 -14 -28 -23 -2 -12 1 -15 12 -11 9 3 13 10
10 15 -3 5 4 9 15 9 12 0 21 5 21 10 0 6 7 10 15 10 12 0 12 -3 -3 -18 -10
-10 -27 -22 -37 -26 -30 -11 -3 -28 62 -37 l58 -8 -69 3 c-51 1 -70 6 -77 18
-6 11 -18 15 -37 12 -20 -3 -23 -2 -12 6 12 8 10 10 -10 11 -18 1 -20 3 -7 6
10 3 25 -1 34 -9 14 -11 15 -10 8 12 -10 34 -14 37 -25 20 -6 -8 -10 -10 -10
-4 0 24 16 28 71 17z m496 -13 c4 -13 3 -13 -6 0 -12 17 -16 14 -26 -20 -7
-22 -6 -23 8 -12 9 8 24 12 34 9 13 -3 11 -5 -7 -6 -20 -1 -22 -3 -10 -11 11
-8 8 -9 -12 -6 -19 3 -31 -1 -37 -12 -7 -12 -26 -17 -77 -18 l-69 -3 56 8 c30
4 64 13 75 19 18 10 18 11 0 18 -10 4 -27 2 -39 -5 -16 -10 -21 -10 -28 1 -5
7 -8 18 -8 23 0 6 3 4 6 -2 2 -7 12 -13 20 -13 9 0 13 6 10 14 -7 19 34 8 50
-13 11 -14 12 -14 13 1 0 11 -11 20 -27 25 l-28 7 25 7 c37 11 73 6 77 -11z
m-641 -8 c1 -7 0 -8 -3 -2 -2 5 -9 8 -14 4 -5 -3 -9 0 -9 6 0 15 23 7 26 -8z
m61 12 c-3 -3 -12 -4 -19 -1 -8 3 -5 6 6 6 11 1 17 -2 13 -5z m209 -7 c4 -4 0
-7 -8 -7 -9 0 -18 -6 -21 -12 -3 -7 -5 -3 -4 8 1 21 18 26 33 11z m211 -11 c1
-12 -1 -15 -4 -8 -3 6 -11 12 -19 12 -9 0 -13 4 -10 8 10 17 32 8 33 -12z
m200 18 c-3 -3 -12 -4 -19 -1 -8 3 -5 6 6 6 11 1 17 -2 13 -5z m63 -3 c0 -5
-7 -11 -15 -15 -15 -5 -20 5 -8 17 9 10 23 9 23 -2z m-526 -35 c-6 -15 -24
-23 -24 -11 0 8 24 34 28 30 1 -1 0 -10 -4 -19z m69 7 c-7 -2 -19 -2 -25 0 -7
3 -2 5 12 5 14 0 19 -2 13 -5z m170 0 c-7 -2 -19 -2 -25 0 -7 3 -2 5 12 5 14
0 19 -2 13 -5z m-113 -18 c15 -14 18 -14 30 0 7 8 18 15 24 15 6 0 4 -5 -4
-11 -11 -7 -1 -9 38 -6 29 2 55 0 58 -5 3 -4 -13 -8 -36 -8 -23 0 -39 -3 -37
-7 3 -5 -26 -8 -64 -9 -38 0 -63 4 -56 8 7 4 -6 8 -31 8 -24 0 -41 4 -38 8 3
5 29 7 58 5 39 -3 49 -1 38 6 -8 6 -11 11 -6 11 5 0 17 -7 26 -15z m-345 -24
c-6 -5 -25 10 -25 20 0 5 6 4 14 -3 8 -7 12 -15 11 -17z m740 10 c-3 -6 -11
-11 -16 -11 -5 0 -4 6 3 14 14 16 24 13 13 -3z m-681 -3 c-5 -8 0 -9 14 -6 12
4 22 2 22 -2 0 -5 12 -11 28 -13 15 -2 7 -2 -18 0 -25 3 -51 5 -57 6 -9 0 -10
4 -2 14 14 16 23 17 13 1z m615 -1 c8 -10 7 -14 -2 -14 -6 -1 -32 -3 -57 -6
-25 -2 -33 -2 -17 0 15 2 27 8 27 13 0 4 10 6 22 2 14 -3 19 -2 14 6 -10 16
-1 15 13 -1z m-682 -49 c-3 -8 -6 -5 -6 6 -1 11 2 17 5 13 3 -3 4 -12 1 -19z
m73 12 c-14 -4 -34 -8 -45 -8 -16 0 -15 2 5 8 14 4 34 8 45 8 16 0 15 -2 -5
-8z m635 0 l20 -9 -20 1 c-11 0 -31 4 -45 8 l-25 8 25 0 c14 0 34 -3 45 -8z
m32 -12 c-3 -8 -6 -5 -6 6 -1 11 2 17 5 13 3 -3 4 -12 1 -19z m-502 -18 c-11
-5 -14 -9 -7 -9 8 -1 25 -10 39 -21 19 -15 21 -20 9 -20 -9 0 -16 5 -16 10 0
12 -41 30 -75 32 -40 4 -16 18 28 17 33 0 38 -2 22 -9z m318 3 c-13 -2 -35 -2
-50 0 -16 2 -5 4 22 4 28 0 40 -2 28 -4z m80 -10 c-7 -2 -19 -2 -25 0 -7 3 -2
5 12 5 14 0 19 -2 13 -5z m128 -26 c-10 -9 -11 -8 -5 6 3 10 9 15 12 12 3 -3
0 -11 -7 -18z m-51 3 c0 -5 -5 -10 -11 -10 -5 0 -7 5 -4 10 3 6 8 10 11 10 2
0 4 -4 4 -10z m-376 -7 c4 -5 58 -13 119 -19 l112 -11 -195 0 c-132 1 -168 3
-110 7 75 5 82 7 60 17 -15 7 -19 12 -9 12 9 1 19 -2 23 -6z m346 -13 c14 -4
-11 -5 -55 -2 -44 2 -82 6 -84 8 -8 7 114 2 139 -6z m-617 -7 c-7 -2 -19 -2
-25 0 -7 3 -2 5 12 5 14 0 19 -2 13 -5z m132 -428 l0 -330 -2 328 -3 327 -88
-2 c-48 0 -71 -3 -52 -5 19 -3 39 -8 43 -12 4 -4 -7 -6 -25 -4 -48 6 -60 12
-53 23 4 7 41 10 93 8 l87 -3 0 -330z m88 328 l-53 -4 -2 -332 -3 -332 -2 325
c-2 179 -1 330 2 337 3 9 23 12 57 11 l53 -2 -52 -3z m232 -328 l0 -330 -2
327 -3 327 -48 4 -47 4 50 -1 50 -1 0 -330z m205 320 c1 -5 -18 -13 -40 -16
-22 -3 -37 -2 -33 2 5 4 24 9 43 12 19 2 -4 5 -52 5 l-88 2 -2 -332 -3 -333
-2 325 c-2 179 -1 331 2 338 6 16 175 13 175 -3z m-402 -12 c-10 -2 -28 -2
-40 0 -13 2 -5 4 17 4 22 1 32 -1 23 -4z m150 0 c-10 -2 -28 -2 -40 0 -13 2
-5 4 17 4 22 1 32 -1 23 -4z m25 -274 c-4 -5 -6 56 -3 134 l5 142 3 -134 c1
-74 -1 -138 -5 -142z m-241 84 c2 -50 0 -89 -4 -86 -5 2 -7 64 -6 136 2 134 6
116 10 -50z m181 -110 c-29 -2 -78 -2 -110 0 -32 2 -8 3 52 3 61 0 87 -1 58
-3z m-183 -160 l-5 -158 -3 145 c-2 127 0 170 10 170 2 0 1 -71 -2 -157z m247
-80 c-1 -43 -3 -8 -3 77 0 85 2 120 3 78 2 -43 2 -113 0 -155z m-401 -82 c-3
-5 -24 -11 -46 -13 -48 -4 -39 9 10 15 19 2 36 5 38 5 2 1 1 -2 -2 -7z m634
-10 c0 -8 -79 -1 -84 8 -2 3 16 4 40 2 24 -1 44 -6 44 -10z m-412 2 c-10 -2
-28 -2 -40 0 -13 2 -5 4 17 4 22 1 32 -1 23 -4z m150 0 c-10 -2 -28 -2 -40 0
-13 2 -5 4 17 4 22 1 32 -1 23 -4z"/>
<path d="M1030 1469 c0 -5 5 -7 10 -4 6 3 10 8 10 11 0 2 -4 4 -10 4 -5 0 -10
-5 -10 -11z"/>
<path d="M1505 1470 c3 -5 8 -10 11 -10 2 0 4 5 4 10 0 6 -5 10 -11 10 -5 0
-7 -4 -4 -10z"/>
</g>
</svg>
